<mxfile host="65bd71144e">
    <diagram id="JzTRa6wGhVBtEGqOyyF-" name="Page-1">
        <mxGraphModel dx="1130" dy="528" grid="1" gridSize="10" guides="1" tooltips="1" connect="1" arrows="1" fold="1" page="1" pageScale="1" pageWidth="850" pageHeight="1100" math="0" shadow="0">
            <root>
                <mxCell id="0"/>
                <mxCell id="1" parent="0"/>
                <mxCell id="2" value="" style="rounded=0;whiteSpace=wrap;html=1;fillColor=#0050ef;fontColor=#ffffff;strokeColor=#001DBC;" vertex="1" parent="1">
                    <mxGeometry width="850" height="70" as="geometry"/>
                </mxCell>
                <mxCell id="3" value="" style="rounded=0;whiteSpace=wrap;html=1;fillColor=#f5f5f5;fontColor=#333333;strokeColor=#666666;" vertex="1" parent="1">
                    <mxGeometry x="10" y="5" width="120" height="60" as="geometry"/>
                </mxCell>
                <mxCell id="4" value="&lt;br&gt;&lt;font style=&quot;font-size: 18px;&quot;&gt;Contact&lt;/font&gt;" style="text;strokeColor=none;align=center;fillColor=none;html=1;verticalAlign=middle;whiteSpace=wrap;rounded=0;" vertex="1" parent="1">
                    <mxGeometry x="780" y="20" width="60" height="30" as="geometry"/>
                </mxCell>
                <mxCell id="5" value="&lt;br&gt;&lt;font style=&quot;font-size: 18px;&quot;&gt;About&lt;/font&gt;" style="text;strokeColor=none;align=center;fillColor=none;html=1;verticalAlign=middle;whiteSpace=wrap;rounded=0;" vertex="1" parent="1">
                    <mxGeometry x="700" y="20" width="60" height="30" as="geometry"/>
                </mxCell>
                <mxCell id="6" value="&lt;br&gt;&lt;font style=&quot;font-size: 18px;&quot;&gt;Home&lt;/font&gt;" style="text;strokeColor=none;align=center;fillColor=none;html=1;verticalAlign=middle;whiteSpace=wrap;rounded=0;" vertex="1" parent="1">
                    <mxGeometry x="620" y="20" width="60" height="30" as="geometry"/>
                </mxCell>
                <mxCell id="7" value="&lt;br&gt;&lt;font style=&quot;font-size: 20px;&quot; color=&quot;#cc0000&quot;&gt;LOGO&lt;/font&gt;" style="text;strokeColor=none;align=center;fillColor=none;html=1;verticalAlign=middle;whiteSpace=wrap;rounded=0;" vertex="1" parent="1">
                    <mxGeometry x="40" y="20" width="60" height="30" as="geometry"/>
                </mxCell>
                <mxCell id="9" value="&lt;br&gt;&lt;font style=&quot;font-size: 38px;&quot;&gt;ISO NE Web Service&lt;/font&gt;" style="text;strokeColor=none;align=center;fillColor=none;html=1;verticalAlign=middle;whiteSpace=wrap;rounded=0;" vertex="1" parent="1">
                    <mxGeometry x="228" y="100" width="395" height="30" as="geometry"/>
                </mxCell>
                <mxCell id="10" value="" style="rounded=1;whiteSpace=wrap;html=1;fontSize=38;fontColor=#CC0000;fillColor=#FFFFFF;" vertex="1" parent="1">
                    <mxGeometry x="140" y="180" width="140" height="40" as="geometry"/>
                </mxCell>
                <mxCell id="11" value="" style="rounded=1;whiteSpace=wrap;html=1;fontSize=38;fontColor=#CC0000;fillColor=#FFFFFF;" vertex="1" parent="1">
                    <mxGeometry x="350" y="180" width="140" height="40" as="geometry"/>
                </mxCell>
                <mxCell id="12" value="" style="rounded=1;whiteSpace=wrap;html=1;fontSize=38;fontColor=#CC0000;fillColor=#FFFFFF;" vertex="1" parent="1">
                    <mxGeometry x="560" y="180" width="140" height="40" as="geometry"/>
                </mxCell>
                <mxCell id="13" value="" style="rounded=1;whiteSpace=wrap;html=1;fontSize=38;fontColor=#CC0000;fillColor=#FFFFFF;" vertex="1" parent="1">
                    <mxGeometry x="740" y="180" width="80" height="40" as="geometry"/>
                </mxCell>
                <mxCell id="14" value="&lt;br&gt;&lt;font color=&quot;#000000&quot; style=&quot;font-size: 18px;&quot;&gt;&amp;nbsp;Select Data&lt;/font&gt;" style="text;strokeColor=none;align=center;fillColor=none;html=1;verticalAlign=middle;whiteSpace=wrap;rounded=0;" vertex="1" parent="1">
                    <mxGeometry x="155" y="180" width="110" height="30" as="geometry"/>
                </mxCell>
                <mxCell id="15" value="&lt;br&gt;&lt;font color=&quot;#000000&quot; style=&quot;font-size: 18px;&quot;&gt;&amp;nbsp;Select Location&lt;/font&gt;" style="text;strokeColor=none;align=center;fillColor=none;html=1;verticalAlign=middle;whiteSpace=wrap;rounded=0;" vertex="1" parent="1">
                    <mxGeometry x="350" y="180" width="140" height="30" as="geometry"/>
                </mxCell>
                <mxCell id="16" value="&lt;br&gt;&lt;font color=&quot;#000000&quot; style=&quot;font-size: 18px;&quot;&gt;&amp;nbsp;Select Date&lt;/font&gt;" style="text;strokeColor=none;align=center;fillColor=none;html=1;verticalAlign=middle;whiteSpace=wrap;rounded=0;" vertex="1" parent="1">
                    <mxGeometry x="575" y="180" width="110" height="30" as="geometry"/>
                </mxCell>
                <mxCell id="17" value="&lt;br&gt;&lt;font color=&quot;#000000&quot; style=&quot;font-size: 18px;&quot;&gt;&amp;nbsp;Go&lt;/font&gt;" style="text;strokeColor=none;align=center;fillColor=none;html=1;verticalAlign=middle;whiteSpace=wrap;rounded=0;" vertex="1" parent="1">
                    <mxGeometry x="765" y="180" width="30" height="30" as="geometry"/>
                </mxCell>
                <mxCell id="18" value="" style="verticalLabelPosition=bottom;verticalAlign=top;html=1;shape=mxgraph.basic.patternFillRect;fillStyle=diag;step=5;fillStrokeWidth=0.2;fillStrokeColor=#dddddd;fontSize=38;fontColor=#000000;fillColor=#FFFFFF;" vertex="1" parent="1">
                    <mxGeometry x="20" y="240" width="810" height="210" as="geometry"/>
                </mxCell>
                <mxCell id="19" value="&lt;br&gt;&lt;font color=&quot;#000000&quot; style=&quot;font-size: 47px;&quot;&gt;&amp;nbsp;Results&lt;/font&gt;" style="text;strokeColor=none;align=center;fillColor=none;html=1;verticalAlign=middle;whiteSpace=wrap;rounded=0;" vertex="1" parent="1">
                    <mxGeometry x="325" y="320" width="200" height="40" as="geometry"/>
                </mxCell>
            </root>
        </mxGraphModel>
    </diagram>
</mxfile>